<?xml version="1.0" encoding="UTF-8"?>
<!DOCTYPE svg PUBLIC "-//W3C//DTD SVG 1.1//EN" "http://www.w3.org/Graphics/SVG/1.1/DTD/svg11.dtd">
<svg xmlns="http://www.w3.org/2000/svg" version="1.1" width="2048px" height="2048px" style="shape-rendering:geometricPrecision; text-rendering:geometricPrecision; image-rendering:optimizeQuality; fill-rule:evenodd; clip-rule:evenodd" xmlns:xlink="http://www.w3.org/1999/xlink">
<g><path style="opacity:1" fill="#000000" d="M -0.5,-0.5 C 682.167,-0.5 1364.83,-0.5 2047.5,-0.5C 2047.5,682.167 2047.5,1364.83 2047.5,2047.5C 1364.83,2047.5 682.167,2047.5 -0.5,2047.5C -0.5,1364.83 -0.5,682.167 -0.5,-0.5 Z"/></g>
<g><path style="opacity:1" fill="#cd7400" d="M 977.5,157.5 C 1217.08,148.733 1426.08,223.233 1604.5,381C 1757.63,522.397 1849.47,696.897 1880,904.5C 1907.26,1126.76 1858.26,1330.09 1733,1514.5C 1593.27,1709.53 1404.77,1829.03 1167.5,1873C 954.13,1906.79 755.13,1868.12 570.5,1757C 371.008,1630.41 241.842,1452.24 183,1222.5C 134.902,1010.7 160.569,808.365 260,615.5C 351.161,447.671 482.661,322.171 654.5,239C 757.036,191.283 864.703,164.116 977.5,157.5 Z"/></g>
<g><path style="opacity:1" fill="#fea900" d="M 1002.5,227.5 C 1234.11,225.934 1431.28,306.601 1594,469.5C 1730.19,613.282 1804.19,784.616 1816,983.5C 1822.73,1199.17 1755.73,1387.84 1615,1549.5C 1466.62,1710.93 1282.45,1798.76 1062.5,1813C 840.73,1820.87 648.063,1750.87 484.5,1603C 327.569,1453.59 243.069,1270.09 231,1052.5C 225.025,864.452 277.692,695.119 389,544.5C 514.711,381.31 679.211,279.81 882.5,240C 922.392,233.307 962.392,229.141 1002.5,227.5 Z"/></g>
<g><path style="opacity:1" fill="#fec15f" d="M 986.5,314.5 C 1198.8,308.173 1379.97,379.173 1530,527.5C 1673.5,679.933 1739.5,861.267 1728,1071.5C 1712.03,1261.92 1633.87,1421.09 1493.5,1549C 1345.12,1677.02 1172.46,1736.02 975.5,1726C 780.549,1709.61 618.383,1628.77 489,1483.5C 366.504,1337.69 309.504,1169.02 318,977.5C 334.222,773.208 420.055,605.374 575.5,474C 695.268,377.487 832.268,324.321 986.5,314.5 Z"/></g>
<g><path style="opacity:1" fill="#fefefe" d="M 1327.5,472.5 C 1337.28,471.231 1345.95,473.731 1353.5,480C 1376.39,502.225 1398.56,525.058 1420,548.5C 1424.58,556.925 1424.58,565.258 1420,573.5C 1404.79,588.374 1389.96,603.541 1375.5,619C 1392.95,635.118 1409.78,651.951 1426,669.5C 1441.5,654 1457,638.5 1472.5,623C 1477.4,619.775 1482.73,618.775 1488.5,620C 1493.45,621.806 1498.11,624.139 1502.5,627C 1523.67,648.167 1544.83,669.333 1566,690.5C 1571.78,697.493 1574.11,705.493 1573,714.5C 1572,716.5 1571,718.5 1570,720.5C 1547.65,742.68 1525.49,765.014 1503.5,787.5C 1563.47,915.407 1572.97,1047.07 1532,1182.5C 1484.44,1324.38 1394.28,1429.54 1261.5,1498C 1123.35,1563.74 982.021,1571.41 837.5,1521C 821.599,1514.72 805.933,1507.88 790.5,1500.5C 768.014,1522.49 745.68,1544.65 723.5,1567C 714.512,1570.75 705.846,1570.08 697.5,1565C 675.028,1543.53 652.861,1521.7 631,1499.5C 622.88,1489.94 621.547,1479.61 627,1468.5C 642.167,1453.33 657.333,1438.17 672.5,1423C 654.934,1406.6 637.934,1389.77 621.5,1372.5C 605.681,1387.82 590.014,1403.32 574.5,1419C 566.556,1423.54 558.556,1423.54 550.5,1419C 526.725,1397.23 503.558,1374.73 481,1351.5C 475.617,1344.35 473.284,1336.35 474,1327.5C 475,1325.5 476,1323.5 477,1321.5C 499.347,1299.32 521.514,1276.99 543.5,1254.5C 485.632,1132.48 474.132,1006.15 509,875.5C 556.751,718.43 654.585,604.596 802.5,534C 917.635,483.628 1036.3,473.628 1158.5,504C 1192.49,513.217 1225.32,525.384 1257,540.5C 1280.38,517.615 1303.88,494.948 1327.5,472.5 Z"/></g>
<g><path style="opacity:1" fill="#fec15f" d="M 995.5,624.5 C 1049.36,621.439 1101.69,628.606 1152.5,646C 984.667,813.833 816.833,981.667 649,1149.5C 618.475,1060.7 619.142,972.035 651,883.5C 684.761,795.485 741.928,726.985 822.5,678C 876.253,647.315 933.919,629.482 995.5,624.5 Z"/></g>
<g><path style="opacity:1" fill="#fec25f" d="M 1276.5,716.5 C 1283.14,721.171 1289.47,726.338 1295.5,732C 1301,737.5 1306.5,743 1312,748.5C 1317,754.167 1322,759.833 1327,765.5C 1327.67,766.5 1327.67,767.5 1327,768.5C 1141.33,954.167 955.667,1139.83 770,1325.5C 752.081,1310.25 735.415,1293.58 720,1275.5C 719.333,1274.83 719.333,1274.17 720,1273.5C 905.701,1087.97 1091.2,902.299 1276.5,716.5 Z"/></g>
<g><path style="opacity:1" fill="#fec15f" d="M 1397.5,892.5 C 1403.46,906.896 1407.96,921.896 1411,937.5C 1438.28,1091.34 1394.11,1220.18 1278.5,1324C 1171.87,1408.98 1051.87,1435.31 918.5,1403C 910.723,1400.8 903.057,1398.3 895.5,1395.5C 1062.85,1227.81 1230.19,1060.15 1397.5,892.5 Z"/></g>
</svg>
