<?xml version="1.0" standalone="no"?>
<!DOCTYPE svg PUBLIC "-//W3C//DTD SVG 20010904//EN"
 "http://www.w3.org/TR/2001/REC-SVG-20010904/DTD/svg10.dtd">
<svg version="1.0" xmlns="http://www.w3.org/2000/svg"
 width="2000.000000pt" height="2001.000000pt" viewBox="0 0 2000.000000 2001.000000"
 preserveAspectRatio="xMidYMid meet">
    <g transform="translate(0.000000,2001.000000) scale(0.100000,-0.100000)"
    fill="#000000" stroke="none">
    <path d="M5 19998 c-3 -7 -4 -4508 -3 -10003 l3 -9990 9995 0 9995 0 0 10000
    0 10000 -9993 3 c-7989 2 -9994 0 -9997 -10z m10897 -4263 c80 -17 168 -51
    246 -96 43 -26 572 -547 2230 -2204 1195 -1193 2194 -2197 2219 -2230 203
    -265 203 -635 0 -900 -25 -33 -427 -441 -894 -906 -917 -915 -897 -898 -1062
    -954 -162 -55 -313 -54 -482 2 -129 42 -211 103 -431 321 -109 108 -198 200
    -198 206 0 6 175 186 389 401 462 464 446 441 446 630 0 117 -1 123 -34 189
    -47 96 -219 269 -312 314 -126 61 -262 61 -389 0 -58 -27 -109 -75 -453 -417
    l-387 -385 -940 939 -940 940 359 360 c374 376 403 412 434 525 39 141 30 248
    -35 379 -35 73 -57 101 -157 200 -164 164 -261 211 -432 211 -97 0 -178 -21
    -256 -65 -29 -17 -191 -169 -411 -389 l-363 -361 -242 245 c-265 267 -315 332
    -362 473 -53 160 -53 314 0 474 31 92 61 147 126 228 26 33 427 438 891 900
    876 873 878 875 1019 932 129 52 288 67 421 38z m-2247 -4112 c150 -37 316
    -169 383 -303 91 -184 94 -374 6 -558 -35 -74 -54 -95 -518 -560 l-481 -482
    940 -940 940 -940 505 503 c546 544 551 549 691 582 375 88 719 -258 623 -628
    -37 -143 -34 -140 -608 -717 l-533 -535 25 -80 c32 -107 41 -304 19 -420 -41
    -215 -128 -365 -318 -550 -291 -282 -650 -500 -1039 -629 -291 -96 -506 -134
    -806 -143 -292 -8 -530 18 -800 88 -319 83 -658 242 -918 431 l-69 50 -676
    -674 c-728 -726 -705 -706 -847 -743 -74 -19 -194 -19 -267 0 -113 29 -174 69
    -310 204 -70 69 -142 147 -158 173 -111 173 -109 420 4 589 20 30 331 348 691
    708 l654 654 -57 81 c-162 229 -302 517 -386 793 -243 802 -117 1672 343 2369
    135 204 353 451 477 539 155 111 315 165 511 172 155 6 252 -10 388 -64 l88
    -35 477 475 c321 321 496 488 539 515 144 92 314 119 487 75z"/>
    </g>
</svg>
