<?xml version="1.0" standalone="no"?>
<!DOCTYPE svg PUBLIC "-//W3C//DTD SVG 20010904//EN"
 "http://www.w3.org/TR/2001/REC-SVG-20010904/DTD/svg10.dtd">
<svg version="1.0" xmlns="http://www.w3.org/2000/svg"
 width="2048.000000pt" height="2048.000000pt" viewBox="0 0 2048.000000 2048.000000"
 preserveAspectRatio="xMidYMid meet">

<g transform="translate(0.000000,2048.000000) scale(0.100000,-0.100000)"
fill="#000000" stroke="none">
<path d="M4175 19664 c-16 -2 -79 -9 -140 -15 -610 -60 -1260 -315 -1758 -688
-821 -615 -1330 -1502 -1449 -2521 -19 -171 -19 -12229 0 -12400 18 -150 56
-355 93 -504 322 -1277 1338 -2293 2615 -2615 149 -37 354 -75 504 -93 171
-19 12229 -19 12400 0 150 18 355 56 504 93 1277 322 2293 1338 2615 2615 37
149 75 354 93 504 19 171 19 12229 0 12400 -18 150 -56 355 -93 504 -259 1026
-968 1895 -1924 2361 -364 177 -696 276 -1145 342 -107 16 -543 17 -6200 19
-3347 0 -6098 0 -6115 -2z m9690 -3258 c52 -24 108 -75 433 -399 322 -321 377
-381 404 -435 33 -67 45 -137 33 -199 -6 -33 -43 -74 -272 -304 -242 -244
-264 -269 -254 -288 7 -11 16 -21 21 -21 14 0 448 -430 484 -480 16 -21 36
-42 44 -45 11 -4 98 76 281 258 291 290 297 294 401 284 115 -10 134 -25 553
-446 362 -363 386 -390 407 -446 23 -64 30 -131 17 -180 -6 -21 -123 -145
-390 -412 l-381 -383 13 -37 c8 -21 31 -74 52 -118 21 -44 47 -104 59 -134 11
-30 30 -74 41 -99 91 -198 257 -747 309 -1017 11 -60 29 -155 40 -210 57 -292
97 -838 86 -1150 -31 -889 -192 -1590 -541 -2370 -28 -62 -149 -309 -165 -335
-5 -8 -28 -49 -51 -90 -73 -132 -80 -144 -122 -210 -167 -265 -185 -292 -358
-520 -124 -163 -142 -185 -284 -345 -249 -279 -573 -580 -845 -783 -240 -179
-252 -187 -510 -349 -66 -42 -78 -49 -210 -122 -41 -23 -82 -46 -90 -51 -26
-16 -273 -137 -335 -165 -416 -187 -806 -317 -1195 -400 -424 -90 -714 -125
-1175 -141 -312 -11 -858 29 -1150 86 -55 11 -149 29 -210 40 -270 52 -819
218 -1017 309 -25 11 -69 30 -99 41 -30 12 -90 38 -134 59 -44 21 -97 44 -118
52 l-37 13 -378 -376 c-264 -264 -386 -379 -407 -385 -49 -13 -116 -6 -180 17
-56 21 -83 45 -446 407 -421 419 -436 438 -446 553 -10 104 -6 110 279 396
179 180 257 265 253 276 -3 8 -24 28 -45 44 -50 36 -480 470 -480 484 0 5 -10
14 -21 21 -20 10 -44 -11 -293 -259 -257 -256 -274 -270 -321 -281 -61 -14
-120 -4 -198 35 -76 38 -784 746 -821 822 -36 71 -47 135 -34 197 10 48 22 62
393 435 l383 385 -45 95 c-175 368 -350 885 -427 1260 -101 495 -130 780 -130
1280 0 585 55 1018 199 1565 51 196 187 597 239 710 8 17 24 54 35 83 58 148
211 452 330 657 89 153 209 343 262 415 144 195 238 321 264 351 16 19 48 58
70 84 174 213 527 566 740 740 26 22 65 54 84 70 30 26 156 120 351 264 72 53
262 173 415 262 205 119 509 272 657 330 29 11 67 27 83 35 113 52 514 188
710 239 547 144 980 199 1565 199 500 0 785 -29 1280 -130 374 -77 880 -248
1261 -427 l96 -45 364 365 c233 234 378 372 404 384 56 27 142 22 220 -15z"/>
<path d="M9885 14723 c-87 -7 -477 -64 -565 -83 -646 -138 -1243 -409 -1763
-802 -142 -107 -137 -103 -301 -249 -144 -129 -252 -237 -372 -375 -109 -124
-111 -128 -212 -261 -289 -383 -514 -810 -667 -1267 -89 -265 -137 -474 -187
-801 l-33 -220 0 -395 c0 -380 1 -402 28 -575 42 -278 56 -346 103 -535 39
-153 54 -203 96 -319 8 -23 195 161 2843 2809 1559 1559 2831 2837 2827 2841
-29 25 -424 133 -597 163 -356 62 -424 68 -795 71 -195 1 -377 1 -405 -2z"/>
<path d="M9951 10556 l-3143 -3143 83 -94 c109 -122 273 -285 395 -394 l98
-86 3142 3142 c2650 2650 3141 3145 3131 3159 -32 42 -174 196 -267 289 -91
92 -285 271 -292 271 -2 0 -1418 -1415 -3147 -3144z"/>
<path d="M11622 8887 l-2834 -2834 89 -31 c205 -72 466 -130 813 -179 183 -26
216 -27 550 -27 332 0 368 2 550 27 268 38 381 60 593 117 368 98 656 212 977
387 91 49 182 101 202 114 20 13 72 46 115 74 66 42 213 145 248 172 6 5 30
24 55 43 25 19 61 48 80 65 20 16 63 53 95 80 78 65 395 382 460 460 28 32 64
75 80 95 17 19 46 55 65 80 19 25 38 50 43 55 27 35 130 182 172 248 28 43 61
95 74 115 13 20 65 111 114 202 175 321 289 609 387 977 57 212 79 325 117
593 25 182 27 218 27 550 0 334 -1 367 -27 550 -38 270 -59 380 -107 565 -32
126 -97 335 -104 335 -1 0 -1276 -1275 -2834 -2833z"/>
</g>
</svg>
