<?xml version="1.0" encoding="UTF-8"?>
<svg width="36" height="36" viewBox="0 0 36 36" fill="none" xmlns="http://www.w3.org/2000/svg" class="relative min-w-10 place-items-center md:w-[180px]"><mask id="mask0_3897_15312" style="mask-type:alpha" maskUnits="userSpaceOnUse" x="0" y="0" width="40" height="40"><path d="M32.2477 3.76143C28.8513 0.37814 23.9678 0 18 0C12.0247 0 7.13377 0.382499 3.7388 3.77493C0.34432 7.16596 0 12.049 0 18.0175C0 23.9869 0.34432 28.8715 3.7402 32.2637C7.13496 35.6566 12.0253 36 18 36C23.9747 36 28.8643 35.6566 32.259 32.2637C35.6547 28.8708 36 23.9869 36 18.0175C36 12.0413 35.651 7.15302 32.2477 3.76143Z" fill="#3D96FE"></path></mask><g mask="url(#mask0_3897_15312)"><rect width="40" height="40" fill="#30A9FE"></rect></g><path d="M22.5131 28.506C22.8539 28.5991 22.8091 29.0885 22.4568 29.1182C19.3207 29.3803 13.2674 29.108 10.6472 23.685C10.3481 24.9596 10.6013 26.2823 10.9411 27.3051C11.0526 27.6409 10.5993 27.8692 10.3825 27.5876C8.50749 25.1541 5.73409 20.1304 9.01923 14.5201C7.69559 14.9183 6.62208 15.7435 5.88418 16.4632C5.63404 16.7069 5.22131 16.4397 5.36201 16.1223C6.51369 13.525 9.54243 8.7654 16.2888 8.71011C15.4853 7.97401 14.542 7.53891 13.701 7.28091C13.3518 7.17444 13.4196 6.67279 13.7854 6.66767C16.6369 6.62569 21.4969 7.35565 25.1854 12.0651C25.4803 10.8089 25.2385 9.50559 24.905 8.48795C24.7945 8.15011 25.25 7.9218 25.4647 8.20641C27.2688 10.6144 29.8233 15.4927 26.5757 21.0375C28.0755 20.587 29.3314 19.6492 30.1308 18.9305C30.3799 18.7063 30.7655 18.9643 30.6436 19.2735C29.6535 21.7715 26.6956 27.001 19.3061 26.8475C20.2764 27.7351 21.5042 28.2306 22.5131 28.506ZM17.873 14.8477C16.1471 14.8477 14.7463 16.2237 14.7463 17.919C14.7463 19.6144 16.1471 20.9904 17.873 20.9904C19.599 20.9904 20.9998 19.6144 20.9998 17.919C20.9998 16.2237 19.599 14.8477 17.873 14.8477Z" fill="white"></path><rect x="28" y="18" width="4" height="3" fill="#30A9FE"></rect><rect x="19" y="25.5" width="3" height="3" fill="white"></rect><rect x="28" y="18" width="4" height="3" fill="#30A9FE"></rect></svg>