{
	"asset":{
		"generator":"Khronos glTF Blender I/O v4.0.44",
		"version":"2.0"
	},
	"scene":0,
	"scenes":[
		{
			"name":"Scene",
			"nodes":[
				0
			]
		}
	],
	"nodes":[
		{
			"mesh":0,
			"name":"Cylinder",
			"scale":[
				1.5999999046325684,
				0.12000004947185516,
				1.5999999046325684
			]
		}
	],
	"meshes":[
		{
			"name":"Cylinder.003",
			"primitives":[
				{
					"attributes":{
						"POSITION":0,
						"NORMAL":1,
						"TEXCOORD_0":2
					},
					"indices":3
				}
			]
		}
	],
	"accessors":[
		{
			"bufferView":0,
			"componentType":5126,
			"count":5858,
			"max":[
				0.9999944567680359,
				1,
				1.5023999214172363
			],
			"min":[
				-0.9999944567680359,
				-1,
				-1.4999998807907104
			],
			"type":"VEC3"
		},
		{
			"bufferView":1,
			"componentType":5126,
			"count":5858,
			"type":"VEC3"
		},
		{
			"bufferView":2,
			"componentType":5126,
			"count":5858,
			"type":"VEC2"
		},
		{
			"bufferView":3,
			"componentType":5123,
			"count":11700,
			"type":"SCALAR"
		}
	],
	"bufferViews":[
		{
			"buffer":0,
			"byteLength":70296,
			"byteOffset":0,
			"target":34962
		},
		{
			"buffer":0,
			"byteLength":70296,
			"byteOffset":70296,
			"target":34962
		},
		{
			"buffer":0,
			"byteLength":46864,
			"byteOffset":140592,
			"target":34962
		},
		{
			"buffer":0,
			"byteLength":23400,
			"byteOffset":187456,
			"target":34963
		}
	],
	"buffers":[
		{
			"byteLength":210856,
			"uri":"legenda1.bin"
		}
	]
}
